<?xml version="1.0" standalone="no"?>
<!DOCTYPE svg PUBLIC "-//W3C//DTD SVG 20010904//EN"
 "http://www.w3.org/TR/2001/REC-SVG-20010904/DTD/svg10.dtd">
<svg version="1.0" xmlns="http://www.w3.org/2000/svg"
 width="185.000000pt" height="185.000000pt" viewBox="0 0 185.000000 185.000000"
 preserveAspectRatio="xMidYMid meet">
<metadata>
Created by potrace 1.14, written by Peter Selinger 2001-2017
</metadata>
<g transform="translate(0.000000,185.000000) scale(0.100000,-0.100000)"
fill="#000000" stroke="none">
<path d="M620 1752 c-112 -71 -205 -195 -246 -329 -23 -73 -26 -95 -22 -190 5
-127 29 -206 90 -301 79 -122 220 -223 356 -254 l52 -13 0 -177 0 -177 -26
-20 c-15 -12 -41 -21 -61 -21 -85 0 -143 -53 -143 -131 l0 -49 309 0 c298 0
310 1 316 20 9 30 -14 100 -42 126 -14 13 -44 26 -71 30 -27 4 -55 16 -69 30
-22 22 -23 29 -23 196 l0 174 48 12 c26 7 80 29 121 50 124 61 278 234 257
288 -7 18 -9 17 -29 -8 -12 -15 -35 -46 -50 -69 l-28 -41 -30 28 c-27 26 -28
29 -14 48 9 12 32 55 52 96 130 272 -46 600 -351 651 -113 19 -241 -10 -339
-78 l-37 -26 -25 23 c-14 13 -25 27 -25 32 0 5 23 23 50 40 30 19 50 38 48 46
-5 25 -22 24 -68 -6z m373 -71 l28 -6 -44 -43 c-41 -40 -47 -43 -68 -31 -13 7
-49 20 -79 29 l-55 17 30 13 c58 23 138 33 188 21z m124 -33 c43 -18 103 -61
103 -73 0 -6 -24 -35 -54 -64 l-54 -53 -58 47 c-33 26 -63 51 -69 56 -10 10
71 99 91 99 6 0 25 -6 41 -12z m-537 -32 c25 -28 24 -31 -25 -99 -89 -123
-100 -331 -25 -477 11 -21 45 -66 76 -99 162 -175 439 -197 625 -50 l40 32 25
-23 c13 -13 24 -29 24 -36 0 -7 -22 -28 -49 -48 -170 -125 -380 -146 -566 -57
-321 154 -414 546 -197 834 20 26 39 47 42 47 4 0 17 -11 30 -24z m278 -41
l44 -18 -113 -113 c-63 -63 -116 -114 -120 -114 -10 0 -27 46 -39 108 -11 54
-10 65 6 99 11 21 30 44 44 51 32 17 120 10 178 -13z m435 -74 c14 -21 33 -56
42 -77 l16 -38 -51 -51 c-44 -43 -52 -48 -60 -33 -6 9 -28 39 -50 67 -22 28
-40 54 -40 58 0 9 102 113 111 113 3 0 18 -17 32 -39z m-284 -16 c34 -25 61
-51 61 -58 0 -7 -61 -73 -135 -147 l-134 -134 -26 24 c-14 14 -39 45 -56 69
l-30 45 123 123 c68 68 126 123 129 123 4 0 34 -20 68 -45z m-425 -246 c-27
-27 -52 -49 -57 -49 -19 0 -2 173 22 225 l23 50 30 -89 30 -89 -48 -48z m568
109 c19 -24 41 -55 50 -69 l16 -26 -123 -123 c-141 -141 -129 -138 -222 -56
l-45 39 139 139 c76 76 141 138 145 138 4 0 22 -19 40 -42z m216 -100 c-2 -50
-11 -99 -22 -123 l-18 -40 -17 60 c-9 33 -23 70 -29 83 -12 20 -9 26 30 62 24
22 47 40 52 40 4 0 6 -37 4 -82z m-658 -69 l54 -70 -68 -67 -67 -67 -21 25
c-11 14 -32 49 -46 79 l-24 53 58 59 c32 32 59 59 59 59 1 0 25 -32 55 -71z
m554 -19 c21 -58 24 -137 7 -168 -6 -12 -25 -29 -41 -37 -48 -25 -98 -20 -209
21 -10 3 21 41 95 118 60 62 114 114 120 115 5 0 18 -22 28 -49z m-422 -117
c24 -21 55 -46 68 -55 l25 -16 -60 -61 -60 -60 -60 30 c-107 55 -106 52 -28
131 37 37 68 68 70 68 1 0 21 -17 45 -37z m168 -108 c17 -9 56 -21 87 -29 l58
-13 -45 -23 c-35 -18 -66 -25 -137 -28 -51 -2 -93 -1 -93 4 0 8 90 104 98 104
1 0 16 -7 32 -15z m-10 -455 l0 -179 35 -35 c25 -25 47 -37 80 -42 52 -7 85
-35 85 -71 l0 -23 -270 0 c-257 0 -270 1 -270 19 0 10 9 30 20 43 15 20 31 26
77 31 65 7 100 29 125 78 15 28 18 62 18 197 l0 162 50 0 50 0 0 -180z"/>
</g>
</svg>
